<svg id="Capa_1" data-name="Capa 1" xmlns="http://www.w3.org/2000/svg" viewBox="0 0 18.3 15.5"><defs><style>.cls-1{fill:#fff;}.cls-1,.cls-2{stroke:#339;stroke-miterlimit:10;}.cls-2{fill:none;stroke-width:2px;}</style></defs><title>Antena</title><polygon class="cls-1" points="10.11 15 7.47 15 8.35 7.41 9.45 7.41 10.11 15"/><path class="cls-2" d="M15.07,4.56a5.39,5.39,0,0,1,.2,6.86" transform="translate(-1.52 -2.38)"/><path class="cls-2" d="M16.83,3.09A7.47,7.47,0,0,1,17.07,13" transform="translate(-1.52 -2.38)"/><path class="cls-2" d="M13.32,6.1a3,3,0,0,1,0,3.88" transform="translate(-1.52 -2.38)"/><path class="cls-2" d="M5.89,11.6a5.39,5.39,0,0,1,.4-6.85" transform="translate(-1.52 -2.38)"/><path class="cls-2" d="M4,12.92a8,8,0,0,1,.57-9.86" transform="translate(-1.52 -2.38)"/><path class="cls-2" d="M7.76,10.22A3,3,0,0,1,8,6.36" transform="translate(-1.52 -2.38)"/><circle class="cls-1" cx="9.04" cy="5.97" r="1.51"/></svg>