<?xml version="1.0" encoding="utf-8"?>
<!-- Generator: Adobe Illustrator 25.0.0, SVG Export Plug-In . SVG Version: 6.00 Build 0)  -->
<svg version="1.1" id="Capa_1" xmlns="http://www.w3.org/2000/svg" xmlns:xlink="http://www.w3.org/1999/xlink" x="0px" y="0px"
	 viewBox="0 0 50 50" style="enable-background:new 0 0 50 50;" xml:space="preserve">
<style type="text/css">
	.st0{fill:#FFFFFF;stroke:#626261;stroke-miterlimit:10;}
	.st1{fill:none;stroke:#626261;stroke-miterlimit:10;}
	.st2{fill:#626261;}
	.st3{font-family:'Poppins-Regular';}
	.st4{font-size:2px;}
</style>
<rect id="Contenedor" x="3.23" y="3.23" class="st0" width="43.55" height="43.55"/>
<rect id="No_se" x="5.21" y="7.07" class="st0" width="17.35" height="3.2"/>
<rect id="Pantall" x="27.72" y="7.07" class="st1" width="16.81" height="9.88"/>
<g id="Angulos">
	<line class="st1" x1="27.72" y1="20.86" x2="27.72" y2="27.27"/>
	<line class="st1" x1="28.08" y1="36.08" x2="28.08" y2="42.48"/>
	<line class="st1" x1="44.54" y1="20.86" x2="44.54" y2="27.27"/>
	<line class="st1" x1="44.54" y1="36.08" x2="44.54" y2="42.48"/>
	<line class="st1" x1="34.13" y1="21.4" x2="27.72" y2="21.4"/>
	<line class="st1" x1="44.54" y1="21.4" x2="38.13" y2="21.4"/>
	<line class="st1" x1="34.48" y1="42.04" x2="28.08" y2="42.04"/>
	<line class="st1" x1="44.54" y1="42.04" x2="38.13" y2="42.04"/>
</g>
<g id="Huella">
	<g>
		<g>
			<path class="st2" d="M30.91,31.4c1.06,0.01,2.16-0.54,2.62-1.53c0.07-0.16-0.07-0.29-0.22-0.31c-0.17-0.02-0.39,0.05-0.47,0.22
				c-0.03,0.06-0.06,0.13-0.1,0.19c0,0.01-0.05,0.08-0.01,0.02c-0.01,0.02-0.03,0.04-0.04,0.06c-0.03,0.04-0.06,0.09-0.1,0.13
				c-0.16,0.19-0.35,0.34-0.56,0.45c-0.06,0.03-0.12,0.06-0.18,0.08c-0.01,0.01-0.11,0.04-0.04,0.02c-0.03,0.01-0.07,0.02-0.1,0.03
				c-0.05,0.02-0.11,0.03-0.16,0.04c-0.03,0.01-0.06,0.01-0.09,0.02c-0.02,0-0.11,0.02-0.02,0c-0.15,0.02-0.31,0.04-0.46,0.04
				c-0.16,0-0.38,0.12-0.4,0.3C30.56,31.35,30.77,31.4,30.91,31.4L30.91,31.4z"/>
		</g>
	</g>
	<g>
		<g>
			<g>
				<path class="st2" d="M31.31,28.71c0.19-1.65,1.16-3.17,2.67-3.93c1.46-0.73,3.2-0.63,4.67,0.04c0.16,0.07,0.37,0.05,0.52-0.06
					c0.09-0.07,0.22-0.25,0.05-0.32c-1.71-0.78-3.72-0.87-5.44-0.06c-1.74,0.83-2.97,2.48-3.19,4.4
					C30.54,29.12,31.28,29,31.31,28.71L31.31,28.71z"/>
			</g>
		</g>
		<g>
			<g>
				<path class="st2" d="M41.78,31.07c0.73-2.23-0.04-4.58-1.76-6.12c-0.14-0.13-0.79,0.15-0.68,0.25c1.68,1.51,2.44,3.83,1.73,6.01
					C41.02,31.33,41.72,31.26,41.78,31.07L41.78,31.07z"/>
			</g>
		</g>
		<g>
			<g>
				<path class="st2" d="M30.47,30.02c0.63,0.09,1.35,0.09,1.9-0.27c0.49-0.33,0.5-0.82,0.52-1.36c0.01-0.52,0.11-1.02,0.41-1.45
					c0.34-0.49,0.84-0.84,1.36-1.13c0.1-0.06,0.21-0.18,0.07-0.26c-0.14-0.08-0.39,0-0.51,0.07c-0.86,0.47-1.73,1.15-1.97,2.15
					c-0.06,0.26-0.08,0.54-0.08,0.81c-0.01,0.24,0,0.5-0.08,0.73c-0.17,0.48-0.76,0.4-1.16,0.34c-0.17-0.02-0.39,0.02-0.51,0.14
					C30.3,29.88,30.32,30,30.47,30.02L30.47,30.02z"/>
			</g>
		</g>
		<g>
			<g>
				<path class="st2" d="M35.64,25.51c1.61-0.19,3.31,0.31,4.03,1.89c0.22,0.49,0.35,1.03,0.38,1.57c0.02,0.39-0.02,0.77-0.09,1.15
					c-0.06,0.33-0.15,0.66-0.12,0.99c0.08,0.94,1.17,1.23,1.94,1.33c0.31,0.04,0.76-0.39,0.27-0.45c-0.44-0.05-0.92-0.17-1.23-0.5
					c-0.26-0.27-0.28-0.6-0.22-0.96c0.1-0.66,0.23-1.29,0.16-1.97c-0.17-1.55-1.09-2.85-2.61-3.33c-0.78-0.25-1.62-0.27-2.43-0.18
					c-0.13,0.02-0.4,0.1-0.41,0.26C35.31,25.49,35.51,25.52,35.64,25.51L35.64,25.51z"/>
			</g>
		</g>
		<g>
			<g>
				<path class="st2" d="M33.8,28.87c-0.01-1.27,1.12-2.33,2.39-2.36c1.25-0.04,2.46,0.85,2.63,2.13c0.03,0.21,0.76,0.05,0.72-0.19
					c-0.14-1.06-1.02-1.91-2.03-2.18c-1.46-0.4-3.36,0.16-4.11,1.55c-0.21,0.38-0.33,0.82-0.33,1.26
					C33.08,29.26,33.8,29.13,33.8,28.87L33.8,28.87z"/>
			</g>
		</g>
		<g>
			<g>
				<path class="st2" d="M30.91,32.47c1.16-0.03,2.55-0.26,3.28-1.26c0.42-0.57,0.42-1.26,0.61-1.91c0.19-0.64,0.69-1.29,1.33-1.53
					c0.63-0.24,1.11,0.34,1.34,0.85c0.23,0.5,0.22,1.05,0.03,1.56c-0.43,1.21-1.56,2.27-2.63,2.92c-1.17,0.72-2.54,1.1-3.9,1.25
					c-0.15,0.02-0.39,0.11-0.4,0.28c-0.02,0.17,0.19,0.24,0.33,0.22c2.75-0.31,5.64-1.56,7.04-4.08c0.59-1.06,0.61-2.44-0.4-3.25
					c-1.3-1.05-3.07,0.49-3.45,1.74c-0.23,0.75-0.19,1.61-0.87,2.13c-0.62,0.48-1.49,0.55-2.25,0.57
					C30.58,31.98,30.41,32.48,30.91,32.47L30.91,32.47z"/>
			</g>
		</g>
		<g>
			<g>
				<path class="st2" d="M30.47,33.47c1,0.16,2.06-0.03,2.94-0.53c0.08-0.05,0.23-0.17,0.08-0.23c-0.15-0.06-0.38,0.01-0.51,0.08
					c-0.06,0.03-0.12,0.07-0.18,0.1c-0.02,0.01-0.04,0.02-0.05,0.03c0.03-0.02,0.02-0.01,0,0c-0.04,0.02-0.08,0.04-0.13,0.05
					c-0.05,0.02-0.09,0.03-0.14,0.05c-0.02,0.01-0.05,0.02-0.02,0.01c-0.03,0.01-0.05,0.02-0.08,0.02
					c-0.11,0.03-0.22,0.06-0.31,0.07c-0.39,0.07-0.76,0.07-1.15,0.01c-0.17-0.03-0.38,0.04-0.51,0.14
					C30.3,33.36,30.32,33.45,30.47,33.47L30.47,33.47z"/>
			</g>
		</g>
		<g>
			<g>
				<path class="st2" d="M34.35,32.65c1.43-0.8,2.49-2.24,2.45-3.93c-0.01-0.38-0.74-0.28-0.73,0.05c0.02,0.66-0.14,1.3-0.45,1.88
					c-0.36,0.66-0.96,1.21-1.59,1.56c-0.13,0.07-0.27,0.22-0.17,0.38C33.95,32.74,34.22,32.73,34.35,32.65L34.35,32.65z"/>
			</g>
		</g>
		<g>
			<g>
				<path class="st2" d="M38.56,29.22c-0.45,1.36,0,2.83,1.03,3.8c0.13,0.12,0.34,0.1,0.49,0.03c0.09-0.04,0.31-0.21,0.18-0.33
					c-0.98-0.92-1.4-2.28-0.97-3.57c0.06-0.17-0.22-0.2-0.32-0.19C38.8,28.97,38.62,29.06,38.56,29.22L38.56,29.22z"/>
			</g>
		</g>
		<g>
			<g>
				<path class="st2" d="M40.34,33.45c0.45,0.44,1.2,0.33,1.63-0.08c0.04-0.04,0.09-0.1,0.07-0.16c-0.02-0.06-0.09-0.09-0.14-0.1
					c-0.17-0.03-0.39,0.02-0.51,0.14c-0.02,0.02-0.04,0.04-0.06,0.05c-0.03,0.03,0.06-0.04,0.02-0.02
					c-0.01,0.01-0.02,0.02-0.03,0.02c-0.01,0.01-0.02,0.01-0.03,0.02c-0.04,0.02,0.04-0.02,0.04-0.02
					c-0.02,0.01-0.04,0.02-0.06,0.03c-0.06,0.03,0.1-0.03,0.03-0.01c-0.02,0.01-0.09,0.02,0,0c0.08-0.02-0.01,0-0.03,0
					c-0.02,0,0.11,0,0.06,0c-0.02,0-0.04,0-0.06,0c-0.05,0,0.06,0.01,0.03,0c-0.01,0-0.02,0-0.03-0.01c-0.02,0-0.05-0.01-0.06-0.02
					c0.01,0,0.06,0.02,0.03,0.01c-0.01,0-0.02-0.01-0.03-0.01c-0.02-0.01-0.03-0.01-0.05-0.02c-0.03-0.02-0.06-0.04-0.09-0.06
					c0.02,0.01,0.03,0.02,0.05,0.04c-0.03-0.02-0.06-0.05-0.09-0.08c-0.12-0.11-0.35-0.07-0.48-0.01c-0.07,0.03-0.15,0.07-0.19,0.14
					C40.31,33.34,40.29,33.4,40.34,33.45L40.34,33.45z"/>
			</g>
		</g>
		<g>
			<g>
				<path class="st2" d="M37.32,32.32c0.7,1.55,2.32,2.41,3.97,2.51c0.16,0.01,0.4-0.05,0.48-0.21c0.08-0.15-0.07-0.24-0.21-0.25
					c-1.46-0.09-2.9-0.89-3.51-2.25C37.92,31.84,37.2,32.06,37.32,32.32L37.32,32.32z"/>
			</g>
		</g>
		<g>
			<g>
				<path class="st2" d="M37.32,33.57c0,0.01,0,0.01,0,0.02c0,0.03-0.03,0.01,0.01-0.02c-0.01,0.01-0.02,0.03-0.03,0.04
					c0.04-0.06,0.04-0.04,0.02-0.02c-0.01,0.01-0.02,0.01-0.03,0.02c0.09-0.07,0.03-0.02,0,0c-0.03,0.01-0.09,0.03,0.03-0.01
					c-0.01,0.01-0.03,0.01-0.04,0.02c-0.03,0.01-0.06,0.02-0.08,0.03c0.15-0.05,0.02-0.01-0.02,0c-0.02,0-0.04,0.01-0.05,0.01
					c-0.06,0.01,0.11-0.02,0.04-0.01c-0.03,0.01-0.07,0.01-0.1,0.02c-0.03,0-0.1,0.01,0.02,0c-0.02,0-0.03,0-0.05,0
					c-0.03,0-0.06,0-0.1,0c0.12,0,0.01,0-0.02-0.01c-0.01,0-0.03-0.01-0.04-0.01c0.07,0,0.04,0.01,0.01,0
					c-0.01,0-0.03-0.01-0.04-0.01c-0.01,0-0.05-0.02-0.01,0c0.03,0.02,0,0-0.01-0.01c-0.01-0.01-0.02-0.01-0.03-0.02
					c-0.01-0.01-0.02-0.02-0.03-0.04c0.01,0.01,0.02,0.02,0.02,0.03c-0.04-0.06-0.04-0.12-0.04-0.19c0,0.01,0,0.03,0,0.04
					c0.01-0.1,0.03-0.19,0.08-0.26c0.05-0.07,0.1-0.14,0.16-0.2c0.01-0.01,0.05-0.05,0.02-0.02c-0.04,0.03,0.01-0.01,0.01-0.01
					c0.01,0,0.03-0.03,0.04-0.03c0,0-0.08,0.05-0.03,0.02c0.04-0.02-0.1,0.04-0.04,0.02c-0.13,0.05-0.1,0.03-0.07,0.02
					c-0.09,0.02-0.11,0.02-0.08,0.02c0.03,0,0.01,0-0.07,0.01c0.05,0-0.09-0.01-0.05,0c0.17,0.01,0.38-0.03,0.51-0.14
					c0.04-0.03,0.09-0.08,0.08-0.13c-0.01-0.05-0.09-0.07-0.13-0.07c-0.33-0.03-0.66,0.12-0.88,0.37c-0.11,0.12-0.22,0.27-0.25,0.43
					c-0.02,0.1-0.03,0.21,0.02,0.3c0.11,0.2,0.37,0.22,0.57,0.23c0.29,0.01,0.58-0.06,0.85-0.15c0.14-0.05,0.27-0.11,0.4-0.19
					c0.06-0.04,0.17-0.13,0.18-0.21c0-0.06-0.01-0.08-0.07-0.1c-0.07-0.03-0.17-0.02-0.23-0.01c-0.09,0.02-0.19,0.04-0.28,0.09
					C37.42,33.47,37.32,33.52,37.32,33.57L37.32,33.57z"/>
			</g>
		</g>
		<g>
			<g>
				<path class="st2" d="M30.83,35.57c0.19,0.36,0.53,0.54,0.93,0.58c0.28,0.02,0.56-0.02,0.82-0.12c0.17-0.06,0.43-0.19,0.47-0.39
					c0.05-0.25-0.67-0.14-0.72,0.1c0,0-0.01,0.03-0.01,0.03c0.01,0.01,0.01-0.06,0.01-0.02c0,0-0.01,0.01-0.01,0.01
					c0.01-0.01,0.02-0.02,0.03-0.03c0,0-0.03,0.03-0.03,0.03c0.01-0.02,0.07-0.05,0.01-0.01c-0.05,0.03,0.07-0.03,0.03-0.01
					c-0.01,0.01-0.03,0.01-0.04,0.02c-0.07,0.03,0.09-0.03,0.02-0.01c-0.02,0-0.03,0.01-0.05,0.01c-0.06,0.01,0,0,0.03,0
					c-0.02,0-0.04,0.01-0.06,0.01c-0.02,0-0.07-0.01-0.02,0c0.05,0.01-0.01,0-0.02,0c-0.02,0-0.05,0-0.07,0c-0.06,0,0.04,0.01,0,0
					c-0.02,0-0.05-0.01-0.07-0.01c-0.02,0-0.04-0.01-0.06-0.01c-0.07-0.01,0.04,0.02-0.02-0.01c-0.04-0.01-0.07-0.03-0.11-0.05
					c-0.02-0.01-0.04-0.02-0.06-0.03c0.02,0.02,0,0-0.01-0.01c-0.03-0.02-0.06-0.04-0.08-0.07c-0.04-0.04-0.08-0.09-0.12-0.14
					c-0.01-0.02-0.02-0.04-0.04-0.05c0.03,0.05,0,0-0.01-0.01c-0.07-0.13-0.29-0.11-0.41-0.07c-0.08,0.02-0.18,0.06-0.24,0.12
					C30.87,35.45,30.8,35.51,30.83,35.57L30.83,35.57z"/>
			</g>
		</g>
		<g>
			<g>
				<path class="st2" d="M33.56,35.55c0.66-0.27,1.33-0.51,2.01-0.74c0.68-0.22,1.18-0.35,1.89-0.15c0.58,0.17,1.06,0.48,1.57,0.78
					c0.59,0.35,1.3,0.42,1.97,0.39c0.19-0.01,0.79-0.32,0.31-0.29c-0.48,0.03-0.97-0.03-1.41-0.24c-0.26-0.12-0.5-0.31-0.75-0.45
					c-0.59-0.33-1.25-0.58-1.93-0.61c-0.57-0.03-1.13,0.15-1.67,0.33c-0.76,0.25-1.51,0.51-2.25,0.82c-0.07,0.03-0.29,0.1-0.22,0.21
					C33.16,35.68,33.5,35.58,33.56,35.55L33.56,35.55z"/>
			</g>
		</g>
		<g>
			<g>
				<path class="st2" d="M32.39,36.95c0.9-0.12,1.92-0.32,2.63-0.91c0.25-0.21,0.4-0.26,0.73-0.27c0.49-0.01,0.97,0.05,1.46,0.1
					c0.17,0.02,0.38-0.02,0.51-0.14c0.1-0.09,0.1-0.22-0.06-0.24c-0.85-0.09-1.85-0.28-2.67,0.08c-0.4,0.17-0.66,0.53-1.08,0.68
					c-0.46,0.16-0.93,0.27-1.42,0.33c-0.12,0.02-0.39,0.09-0.41,0.24C32.06,36.97,32.29,36.97,32.39,36.95L32.39,36.95z"/>
			</g>
		</g>
		<g>
			<g>
				<path class="st2" d="M37.85,36.06c0.57,0.72,1.53,0.88,2.39,0.72c0.13-0.02,0.34-0.16,0.3-0.32c-0.05-0.18-0.29-0.15-0.42-0.13
					c-0.03,0.01,0.12-0.02,0.03-0.01c-0.02,0-0.05,0.01-0.07,0.01c-0.06,0.01-0.13,0.01-0.19,0.02c-0.02,0-0.04,0-0.06,0
					c-0.05,0-0.04,0.01,0,0c-0.04,0.01-0.09,0-0.14-0.01c-0.04,0-0.09-0.01-0.13-0.01c-0.03,0-0.05-0.01-0.08-0.01
					c-0.06-0.01,0.01,0-0.03,0c-0.38-0.08-0.7-0.27-0.94-0.57c-0.11-0.14-0.35-0.11-0.49-0.04C37.91,35.77,37.73,35.91,37.85,36.06
					L37.85,36.06z"/>
			</g>
		</g>
		<g>
			<g>
				<path class="st2" d="M34,37.85c0.53-0.12,1.05-0.3,1.53-0.56c0.18-0.1,0.35-0.22,0.54-0.32c0,0,0.08-0.04,0.11-0.05
					c0.04-0.02-0.07,0.02,0,0c0.03-0.01,0.06-0.01,0.08-0.02c-0.09,0.02,0.06-0.01,0.09-0.01c0.03,0,0.07,0,0.15,0
					c0.15,0.01,0.3,0.04,0.45,0.08c0.51,0.14,0.99,0.38,1.46,0.64c0.15,0.09,0.38,0.04,0.52-0.06c0.11-0.07,0.21-0.24,0.05-0.33
					c-0.78-0.43-1.72-0.91-2.64-0.79c-0.33,0.04-0.61,0.18-0.89,0.36c-0.48,0.3-1,0.5-1.55,0.63c-0.13,0.03-0.35,0.15-0.3,0.31
					C33.62,37.9,33.87,37.88,34,37.85L34,37.85z"/>
			</g>
		</g>
		<g>
			<g>
				<path class="st2" d="M37.06,38.39c0.15-0.06,0.29-0.13,0.43-0.22c0.11-0.07,0.25-0.18,0.29-0.31c0.06-0.18-0.09-0.32-0.23-0.4
					c-0.19-0.12-0.41-0.2-0.63-0.24c-0.25-0.05-0.51-0.08-0.76-0.03c-0.19,0.03-0.42,0.1-0.55,0.24c-0.14,0.15-0.08,0.35-0.04,0.52
					c0.01,0.05,0.09,0.06,0.13,0.07c0.08,0.01,0.19-0.01,0.27-0.03c0.08-0.02,0.18-0.05,0.25-0.11c0.04-0.03,0.09-0.07,0.08-0.13
					c-0.02-0.07-0.03-0.13-0.04-0.2c0-0.03-0.01-0.06-0.01-0.09c0-0.01,0.02-0.08,0.01-0.05c0,0.01,0.01-0.02,0.02-0.02
					c-0.01,0-0.05,0.04-0.03,0.03c0.03-0.02-0.08,0.05-0.03,0.02c-0.1,0.05-0.08,0.04-0.06,0.03c0.05-0.02-0.08,0.02-0.07,0.02
					c0.07-0.02-0.11,0.02-0.03,0.01c0.07-0.01-0.08,0-0.03,0c0.02,0,0.04,0,0.05,0c0.01,0,0.02,0,0.03,0c0.05,0-0.04,0-0.04,0
					c0.02,0.01,0.05,0,0.07,0c0.04,0,0.08,0.01,0.12,0.01c0.01,0,0.06,0.02,0.06,0.01c-0.01,0.01-0.05-0.01-0.02,0
					c0.02,0,0.03,0.01,0.05,0.01c0.09,0.02,0.18,0.05,0.27,0.08c0.04,0.01,0.08,0.03,0.12,0.05c0.02,0.01,0.04,0.02,0.06,0.03
					c0.03,0.02,0,0-0.01,0c0.01,0.01,0.03,0.01,0.04,0.02c0.06,0.03,0.12,0.07,0.17,0.12c0.01,0.01,0.02,0.02,0.03,0.04
					c0,0.01,0.01,0.01,0.01,0.02c0-0.01-0.01-0.03-0.01-0.01c0.01,0.02,0.02,0.04,0.03,0.07c0,0.01,0,0.01,0,0.02
					c0,0.01,0.01-0.02,0,0.01c-0.01,0.02-0.04,0.07-0.01,0.04c-0.02,0.02-0.04,0.04-0.06,0.06c-0.01,0.01-0.03,0.02,0.01-0.01
					c-0.01,0.01-0.02,0.02-0.04,0.03c-0.01,0.01-0.02,0.01-0.03,0.02c-0.04,0.03-0.01,0,0.01-0.01c-0.02,0-0.06,0.03-0.08,0.04
					c-0.03,0.02-0.12,0.05-0.01,0.01c-0.02,0.01-0.04,0.02-0.06,0.03c-0.06,0.02-0.31,0.14-0.21,0.24c0.04,0.04,0.13,0.04,0.19,0.04
					C36.88,38.45,36.97,38.43,37.06,38.39L37.06,38.39z"/>
			</g>
		</g>
	</g>
</g>
<g id="Teclado">
	<g>
		<g>
			<path class="st2" d="M5.21,17.58c5.78,0,11.57,0,17.35,0c-0.21-0.21-0.42-0.42-0.63-0.63c0,7.45,0,14.9,0,22.35
				c0,1.06,0,2.12,0,3.18c0.21-0.21,0.42-0.42,0.63-0.63c-5.78,0-11.57,0-17.35,0c0.21,0.21,0.42,0.42,0.63,0.63
				c0-7.45,0-14.9,0-22.35c0-1.06,0-2.12,0-3.18c0-0.8-1.25-0.81-1.25,0c0,7.45,0,14.9,0,22.35c0,1.06,0,2.12,0,3.18
				c0,0.34,0.29,0.63,0.63,0.63c5.78,0,11.57,0,17.35,0c0.34,0,0.63-0.29,0.63-0.63c0-7.45,0-14.9,0-22.35c0-1.06,0-2.12,0-3.18
				c0-0.34-0.29-0.63-0.63-0.63c-5.78,0-11.57,0-17.35,0C4.41,16.33,4.41,17.58,5.21,17.58z"/>
		</g>
	</g>
	<g>
		<g>
			<path class="st2" d="M5.21,38.85c5.07,0,10.13,0,15.2,0c0.72,0,1.43,0,2.15,0c0.8,0,0.81-1.25,0-1.25c-5.07,0-10.13,0-15.2,0
				c-0.72,0-1.43,0-2.15,0C4.41,37.6,4.41,38.85,5.21,38.85L5.21,38.85z"/>
		</g>
	</g>
	<g>
		<g>
			<path class="st2" d="M5.21,34.6c5.07,0,10.13,0,15.2,0c0.72,0,1.43,0,2.15,0c0.8,0,0.81-1.25,0-1.25c-5.07,0-10.13,0-15.2,0
				c-0.72,0-1.43,0-2.15,0C4.41,33.35,4.41,34.6,5.21,34.6L5.21,34.6z"/>
		</g>
	</g>
	<g>
		<g>
			<path class="st2" d="M5.21,30.34c5.07,0,10.13,0,15.2,0c0.72,0,1.43,0,2.15,0c0.8,0,0.81-1.25,0-1.25c-5.07,0-10.13,0-15.2,0
				c-0.72,0-1.43,0-2.15,0C4.41,29.09,4.41,30.34,5.21,30.34L5.21,30.34z"/>
		</g>
	</g>
	<g>
		<g>
			<path class="st2" d="M5.21,26.09c5.07,0,10.13,0,15.2,0c0.72,0,1.43,0,2.15,0c0.8,0,0.81-1.25,0-1.25c-5.07,0-10.13,0-15.2,0
				c-0.72,0-1.43,0-2.15,0C4.41,24.84,4.41,26.09,5.21,26.09L5.21,26.09z"/>
		</g>
	</g>
	<g>
		<g>
			<path class="st2" d="M5.21,21.83c5.07,0,10.13,0,15.2,0c0.72,0,1.43,0,2.15,0c0.8,0,0.81-1.25,0-1.25c-5.07,0-10.13,0-15.2,0
				c-0.72,0-1.43,0-2.15,0C4.41,20.58,4.41,21.83,5.21,21.83L5.21,21.83z"/>
		</g>
	</g>
	<g>
		<g>
			<path class="st2" d="M19.05,16.95c0,7.45,0,14.9,0,22.35c0,1.06,0,2.12,0,3.18c0,0.8,1.25,0.81,1.25,0c0-7.45,0-14.9,0-22.35
				c0-1.06,0-2.12,0-3.18C20.3,16.15,19.05,16.14,19.05,16.95L19.05,16.95z"/>
		</g>
	</g>
	<g>
		<g>
			<path class="st2" d="M16.15,16.95c0,7.45,0,14.9,0,22.35c0,1.06,0,2.12,0,3.18c0,0.8,1.25,0.81,1.25,0c0-7.45,0-14.9,0-22.35
				c0-1.06,0-2.12,0-3.18C17.4,16.15,16.15,16.14,16.15,16.95L16.15,16.95z"/>
		</g>
	</g>
	<g>
		<g>
			<path class="st2" d="M13.26,16.95c0,7.45,0,14.9,0,22.35c0,1.06,0,2.12,0,3.18c0,0.8,1.25,0.81,1.25,0c0-7.45,0-14.9,0-22.35
				c0-1.06,0-2.12,0-3.18C14.51,16.15,13.26,16.14,13.26,16.95L13.26,16.95z"/>
		</g>
	</g>
	<g>
		<g>
			<path class="st2" d="M10.37,16.95c0,7.45,0,14.9,0,22.35c0,1.06,0,2.12,0,3.18c0,0.8,1.25,0.81,1.25,0c0-7.45,0-14.9,0-22.35
				c0-1.06,0-2.12,0-3.18C11.62,16.15,10.37,16.14,10.37,16.95L10.37,16.95z"/>
		</g>
	</g>
	<g>
		<g>
			<path class="st2" d="M7.48,16.95c0,7.45,0,14.9,0,22.35c0,1.06,0,2.12,0,3.18c0,0.8,1.25,0.81,1.25,0c0-7.45,0-14.9,0-22.35
				c0-1.06,0-2.12,0-3.18C8.73,16.15,7.48,16.14,7.48,16.95L7.48,16.95z"/>
		</g>
	</g>
</g>
<g id="TipoCheck">
	<ellipse class="st0" cx="35.88" cy="14.78" rx="3.24" ry="2.18"/>
	<circle class="st0" cx="35.98" cy="10.72" r="2.04"/>
</g>
<text transform="matrix(1 0 0 1 5.9136 9.4038)" class="st2 st3 st4">MTNETWOKS</text>
</svg>
