<svg id="Capa_1" data-name="Capa 1" xmlns="http://www.w3.org/2000/svg" viewBox="0 0 40.35 30.58">
  <defs>
    <style>
      .cls-1 {
        fill: #339;
      }

      .cls-2 {
        fill: #ee3661;
      }
    </style>
  </defs>
  <title>Ficha</title>
  <g id="wifi">
    <path class="cls-1" d="M47.28,27.81c-.26,1.1-1,1.65-2.14,1a8.86,8.86,0,0,1-1.65-1.44,24.63,24.63,0,0,0-32.84-.58c-.35.3-.67.63-1,.91-.72.55-1.54.76-2.2,0a1.45,1.45,0,0,1,.19-2.2,37.25,37.25,0,0,1,3.13-2.67,27.81,27.81,0,0,1,35.1,2.54C46.45,26.08,47.28,26.62,47.28,27.81Z" transform="translate(-7 -17.85)"/>
    <path class="cls-1" d="M27.11,26a18.35,18.35,0,0,1,12.37,5.12c.72.7,1.65,1.47.74,2.55s-1.89.34-2.78-.38c-7.15-5.72-13.82-5.76-21.2-.16-.8.6-1.59,1.5-2.59.43s-.15-2,.64-2.75C17.13,28,22.39,26,27.11,26Z" transform="translate(-7 -17.85)"/>
    <path class="cls-1" d="M25.9,32.7c4.12,0,6.95,1.14,9.29,3.42.7.68,1.24,1.48.42,2.38s-1.59.43-2.43-.15c-5.15-3.58-7.75-3.62-12.65-.21-.89.61-1.8,1.22-2.61.12s0-1.87.8-2.56A11.09,11.09,0,0,1,25.9,32.7Z" transform="translate(-7 -17.85)"/>
    <path class="cls-1" d="M29.46,45.12c-.32,1.51-1.15,2.5-2.79,2.45a2.36,2.36,0,0,1-2.51-2.63A2.41,2.41,0,0,1,27,42.31C28.58,42.37,29.3,43.56,29.46,45.12Z" transform="translate(-7 -17.85)"/>
  </g>
  <g>
    <polygon class="cls-2" points="28.86 30.58 23.38 27.55 32.49 11.14 37.98 14.18 28.86 30.58"/>
    <polygon class="cls-2" points="21 18.73 24.22 13.37 40.35 22.99 37.13 28.36 21 18.73"/>
  </g>
</svg>
