<?xml version="1.0" encoding="utf-8"?>
<!-- Generator: Adobe Illustrator 25.0.0, SVG Export Plug-In . SVG Version: 6.00 Build 0)  -->
<svg version="1.1" id="Capa_1" xmlns="http://www.w3.org/2000/svg" xmlns:xlink="http://www.w3.org/1999/xlink" x="0px" y="0px"
	 viewBox="0 0 50 50" style="enable-background:new 0 0 50 50;" xml:space="preserve">
<style type="text/css">
	.st0{fill:#fff;stroke:#fff;stroke-miterlimit:10;}
	.st1{fill:none;stroke:#fff;stroke-width:2;stroke-miterlimit:10;}
</style>
<g id="AntenaIco">
	<polygon class="st0" points="26.93,41.07 20.93,41.07 22.93,23.77 25.43,23.77 	"/>
	<path class="st1" d="M34.77,11.84c3.87,4.3,4.08,11.29,0.45,15.64"/>
	<path class="st1" d="M38.8,8.47c5.79,6.42,6.09,15.87,0.54,22.52"/>
	<path class="st1" d="M30.79,15.33c2.14,2.39,2.19,6.34,0.1,8.84"/>
	<path class="st1" d="M13.84,27.87c-3.49-4.62-3.08-11.6,0.9-15.62"/>
	<path class="st1" d="M9.44,30.88c-4.77-6.9-4.29-16.33,1.29-22.49"/>
	<path class="st1" d="M18.1,24.74c-1.93-2.57-1.63-6.51,0.67-8.81"/>
	<circle class="st0" cx="24.5" cy="20.48" r="3.43"/>
</g>
</svg>
