<svg id="Capa_1" data-name="Capa 1" xmlns="http://www.w3.org/2000/svg" xmlns:xlink="http://www.w3.org/1999/xlink" viewBox="0 0 5.8 5.8"><defs><style>.cls-1{fill:#339;}</style><symbol id="Ir_a_la_Web" data-name="Ir a la Web" viewBox="0 0 18.56 19.66"><polygon class="cls-1" points="10.85 8.75 10.85 18.64 13.4 16.1 15.24 19.66 16.59 18.97 14.81 15.54 18.25 15.54 10.85 8.75"/><path class="cls-1" d="M18.42,10.88c0-.09,0-.19,0-.28l0-.15c0-.09,0-.18,0-.27s0-.14,0-.21,0-.15,0-.22,0-.3,0-.45,0-.29,0-.44,0-.18,0-.27V8.43c0-.12,0-.23,0-.35V8c0-.12,0-.24-.06-.36v0h0A9.28,9.28,0,0,0,10.12,0h0L9.71,0H8.85L8.46,0h0A9.28,9.28,0,0,0,.15,7.63h0v0q0,.18-.06.36v.06c0,.12,0,.23,0,.35v.14c0,.09,0,.18,0,.27s0,.29,0,.44,0,.29,0,.44S0,9.91,0,10s0,.09,0,.13,0,.24,0,.36v0c0,.13,0,.26.06.39h0a9.28,9.28,0,0,0,7.48,7.48h.09l.26,0,.18,0,.24,0,.24,0h.67V16.4h0a7.13,7.13,0,0,1-1.22-.11,19,19,0,0,1-.76-3.68c.64,0,1.3.06,2,.06h0V11.44h0c-.74,0-1.44,0-2.09-.07,0-.65-.07-1.35-.07-2.09s0-1.44.07-2.09c.65,0,1.35-.07,2.09-.07s1.43,0,2.09.07V7.3a1.53,1.53,0,0,1,.52.31l.76.7c0-.34,0-.68,0-1a18.94,18.94,0,0,1,3.68.76,7.13,7.13,0,0,1,.11,1.22,7.05,7.05,0,0,1-.11,1.21c-.29.09-.61.19-1,.27l.73.67h0L17.78,13a9.34,9.34,0,0,0,.63-2.08h0ZM6.66,2.67a22.47,22.47,0,0,0-.6,3.39,22.43,22.43,0,0,0-3.39.6A7.16,7.16,0,0,1,6.66,2.67Zm0,13.23a7.15,7.15,0,0,1-4-4,22.43,22.43,0,0,0,3.39.6A22.47,22.47,0,0,0,6.65,15.9Zm-.71-4.64a18.93,18.93,0,0,1-3.68-.76,7,7,0,0,1,0-2.43,18.92,18.92,0,0,1,3.68-.76c0,.64-.06,1.3-.06,2S5.91,10.62,5.95,11.26ZM9.28,5.89c-.68,0-1.34,0-2,.06a19,19,0,0,1,.76-3.68,7,7,0,0,1,2.43,0A19,19,0,0,1,11.25,6C10.61,5.91,10,5.89,9.28,5.89Zm3.22.17a22.5,22.5,0,0,0-.6-3.39,7.16,7.16,0,0,1,4,4A22.52,22.52,0,0,0,12.5,6.05Z"/></symbol></defs><title>Internet</title><use id="Ir_a_la_Web-3" data-name="Ir a la Web" width="18.56" height="19.66" transform="translate(0 0) scale(0.31 0.29)" xlink:href="#Ir_a_la_Web"/></svg>