<?xml version="1.0" encoding="utf-8"?>
<!-- Generator: Adobe Illustrator 25.0.0, SVG Export Plug-In . SVG Version: 6.00 Build 0)  -->
<svg version="1.1" id="Capa_1" xmlns="http://www.w3.org/2000/svg" xmlns:xlink="http://www.w3.org/1999/xlink" x="0px" y="0px"
	 viewBox="0 0 50 50" style="enable-background:new 0 0 50 50;" xml:space="preserve">
<style type="text/css">
	.st0{fill:#DADADA;stroke:#B2B2B2;stroke-width:0.25;stroke-linecap:round;stroke-miterlimit:10;}
	.st1{fill:#FFFEFE;stroke:#FFFFFF;stroke-width:0.25;stroke-linecap:round;stroke-miterlimit:10;}
	.st2{fill:#B2B2B2;}
	.st3{fill:#626261;}
	.st4{fill:#B2B2B2;stroke:#626261;stroke-miterlimit:10;}
	.st5{fill:#E6E8EE;stroke:#626261;stroke-width:0.25;stroke-linecap:round;stroke-miterlimit:10;}
	.st6{fill:none;stroke:#626261;stroke-width:0.25;stroke-linecap:round;stroke-miterlimit:10;}
	.st7{fill:#F0F1F2;stroke:#B2B2B2;stroke-width:0.25;stroke-linecap:round;stroke-miterlimit:10;}
	.st8{fill:#FFFEFE;stroke:#FFFFFF;stroke-miterlimit:10;}
	.st9{fill:#B3B2B2;stroke:#E6E8EF;stroke-miterlimit:10;}
	.st10{fill:#E6E9F0;stroke:#E6E8EF;stroke-miterlimit:10;}
	.st11{fill:none;stroke:#626261;stroke-miterlimit:10;}
	.st12{fill:#FFFFFF;stroke:#626261;stroke-miterlimit:10;}
	.st13{fill:#F4F4F4;stroke:#FFFFFF;stroke-width:0.25;stroke-linecap:round;stroke-miterlimit:10;}
	.st14{fill:#DADADA;stroke:#FFFFFF;stroke-width:0.25;stroke-linecap:round;stroke-miterlimit:10;}
	.st15{fill:#FFFFFF;}
	.st16{fill:none;stroke:#626261;stroke-width:0.5;stroke-miterlimit:10;}
	.st17{fill:none;stroke:#FFFFFF;stroke-width:0.5;stroke-miterlimit:10;}
	.st18{fill:none;stroke:#B2B2B2;stroke-miterlimit:10;}
</style>
<g id="Casa">
	<circle class="st0" cx="40.86" cy="12" r="6.9"/>
	<g>
		<g>
			<path class="st1" d="M44.29,11.95l-3.16-2.2c-0.13-0.09-0.3-0.09-0.43,0l-3.16,2.2c-0.2,0.14-0.49,0.53-0.49,0.53v2.01
				c0,1.21,0.98,2.19,2.19,2.19h3.42c1.21,0,2.19-0.98,2.19-2.19v-2.01C44.86,12.48,44.48,12.09,44.29,11.95z"/>
			<g>
				<path class="st2" d="M35.91,11.91c1.68-1.22,3.37-2.44,5.05-3.67"/>
				<g>
					<path class="st3" d="M36.48,12.88c1.68-1.22,3.37-2.44,5.05-3.67c0.47-0.34,0.76-0.99,0.4-1.54c-0.3-0.47-1.03-0.77-1.54-0.4
						c-1.68,1.22-3.37,2.44-5.05,3.67c-0.47,0.34-0.76,0.99-0.4,1.54C35.24,12.95,35.97,13.25,36.48,12.88L36.48,12.88z"/>
				</g>
			</g>
			<g>
				<path class="st2" d="M41.05,8.24c7.2,5.57,3.37,2.61,4.77,3.69"/>
				<g>
					<path class="st3" d="M40.25,9.03c1.48,1.15,2.97,2.29,4.45,3.44c0.04,0.03,0.08,0.06,0.12,0.1c0.25,0.19,0.47,0.33,0.8,0.33
						c0.28,0,0.61-0.12,0.8-0.33c0.37-0.4,0.5-1.21,0-1.59c-0.05-0.04-0.1-0.08-0.15-0.12c-0.53,0.53-1.06,1.06-1.59,1.59
						c0.11,0.09,0.23,0.18,0.34,0.26c0.25,0.19,0.47,0.33,0.8,0.33c0.28,0,0.61-0.12,0.8-0.33c0.37-0.4,0.5-1.21,0-1.59
						c-0.11-0.09-0.23-0.18-0.34-0.26c-0.25-0.19-0.47-0.33-0.8-0.33c-0.28,0-0.61,0.12-0.8,0.33c-0.37,0.4-0.5,1.21,0,1.59
						c0.05,0.04,0.1,0.08,0.15,0.12c0.53-0.53,1.06-1.06,1.59-1.59c-0.8-0.62-1.6-1.24-2.4-1.86C43.29,8.56,42.57,8,41.84,7.44
						c-0.25-0.19-0.47-0.33-0.8-0.33c-0.28,0-0.61,0.12-0.8,0.33C39.88,7.84,39.75,8.65,40.25,9.03L40.25,9.03z"/>
				</g>
			</g>
			<path class="st4" d="M44.79,10.05l-1.84-1.57c-0.03-0.03-0.05-0.06-0.05-0.1V7.97c0-0.07,0.06-0.13,0.13-0.13h1.84
				c0.07,0,0.13,0.06,0.13,0.13v1.98C45.01,10.06,44.88,10.12,44.79,10.05z"/>
		</g>
		<path class="st5" d="M41.22,16.11h-0.48c-0.24,0-0.44-0.2-0.44-0.44v-1.02c0-0.24,0.2-0.43,0.44-0.43h0.48
			c0.24,0,0.44,0.2,0.44,0.43v1.02C41.65,15.91,41.46,16.11,41.22,16.11z"/>
		<path class="st5" d="M41.66,13.64h-1.44c-0.45,0-0.83-0.37-0.83-0.82v-0.48c0-0.45,0.37-0.83,0.83-0.83h1.44
			c0.45,0,0.83,0.37,0.83,0.83v0.48C42.49,13.27,42.12,13.64,41.66,13.64z"/>
		<line class="st6" x1="40.94" y1="11.69" x2="40.96" y2="13.57"/>
		<line class="st6" x1="39.5" y1="12.51" x2="42.43" y2="12.5"/>
	</g>
</g>
<circle class="st7" cx="11.23" cy="10.53" r="6.9"/>
<path class="st8" d="M7.86,11.09v2.24l0.66,0.03c0.02,1.37,1.16,2.49,2.99,2.49c1.84,0,2.99-1.14,2.99-2.53l0.65,0.01v-2.24H7.86z"
	/>
<rect x="11.42" y="12.77" transform="matrix(-1 -1.224647e-16 1.224647e-16 -1 22.84 27.78)" class="st9" width="0" height="2.24"/>
<circle class="st10" cx="11.42" cy="12.64" r="0.26"/>
<path class="st11" d="M8.91,10.53c-0.04-0.3-0.15-1.24,0.46-2.16c0.2-0.3,0.79-1.2,1.82-1.3c1.28-0.12,2.14,1.1,2.28,1.3
	c0.63,0.92,0.5,1.89,0.46,2.16"/>
<g id="Nuve">
	<circle class="st0" cx="41.19" cy="38.77" r="6.9"/>
	<path class="st12" d="M44.54,37.67h-0.71c-0.05-0.1-0.1-0.21-0.16-0.31c-0.68-1.1-1.75-1.81-2.95-1.81l0,0l0,0
		c-1.41,0-2.62,0.9-3.11,2.14c-1.08,0.12-1.92,1.03-1.92,2.14c0,1.19,0.97,2.16,2.16,2.16h6.69c1.19,0,2.16-0.97,2.16-2.16
		C46.7,38.64,45.72,37.67,44.54,37.67z"/>
</g>
<circle class="st0" cx="11.84" cy="37.94" r="6.9"/>
<g id="Foco">
	<path class="st13" d="M12.03,40.78h1.15c0,0.5-0.52,0.92-1.15,0.92c-0.63,0-1.15-0.41-1.15-0.92c0-0.01,0-0.02,0-0.03L12.03,40.78z
		"/>
	<path class="st14" d="M14.39,36.53c0,0.29-0.05,0.57-0.15,0.83c-0.11,0.28-0.25,0.62-0.45,0.83c-0.19,0.21-0.39,0.95-0.32,1.19
		c0.13,0.42-0.82,0.22-1.2,0.22c-0.31,0-0.83,0.18-1.15,0.17c-0.16,0-0.36-0.01-0.37-0.16c-0.01-0.21-0.04-0.54-0.18-0.85
		c-0.25-0.52-0.59-1.1-0.7-1.39c-0.1-0.26-0.15-0.54-0.15-0.83c0-1.29,1.05-2.34,2.34-2.34S14.39,35.24,14.39,36.53z"/>
	<g>
		<g>
			<path class="st3" d="M11.82,37.43c-0.01,0.59-0.01,1.19-0.02,1.78c0,0.09,0,0.17,0,0.26c0,0.32,0.5,0.32,0.5,0
				c0.01-0.59,0.01-1.19,0.02-1.78c0-0.09,0-0.17,0-0.26C12.33,37.11,11.83,37.11,11.82,37.43L11.82,37.43z"/>
		</g>
	</g>
	<path class="st14" d="M12.96,40.94h-1.78c-0.25,0-0.45-0.2-0.45-0.45v-1.02h2.69v1.02C13.41,40.74,13.21,40.94,12.96,40.94z"/>
	<g>
		<g>
			<path class="st15" d="M10.59,40.32c0.9-0.19,1.8-0.37,2.7-0.56c0.13-0.03,0.26-0.05,0.39-0.08c0.31-0.06,0.18-0.55-0.13-0.48
				c-0.9,0.19-1.8,0.37-2.7,0.56c-0.13,0.03-0.26,0.05-0.39,0.08C10.15,39.9,10.28,40.39,10.59,40.32L10.59,40.32z"/>
		</g>
	</g>
	<g>
		<g>
			<path class="st15" d="M10.73,40.97c0.9-0.19,1.8-0.37,2.7-0.56c0.13-0.03,0.26-0.05,0.39-0.08c0.31-0.06,0.18-0.55-0.13-0.48
				c-0.9,0.19-1.8,0.37-2.7,0.56c-0.13,0.03-0.26,0.05-0.39,0.08C10.28,40.55,10.41,41.03,10.73,40.97L10.73,40.97z"/>
		</g>
	</g>
	<g>
		<g>
			<path class="st3" d="M10.81,36.29c0.32,0.39,0.63,0.77,0.95,1.16c0.04,0.05,0.09,0.11,0.13,0.16c0.08,0.1,0.27,0.09,0.35,0
				c0.1-0.11,0.09-0.25,0-0.35c-0.32-0.39-0.63-0.77-0.95-1.16c-0.04-0.05-0.09-0.11-0.13-0.16c-0.08-0.1-0.27-0.09-0.35,0
				C10.71,36.04,10.72,36.18,10.81,36.29L10.81,36.29z"/>
		</g>
	</g>
	<g>
		<g>
			<path class="st3" d="M13.03,36.17c-0.33,0.31-0.66,0.63-0.99,0.94c-0.05,0.05-0.1,0.09-0.14,0.14c-0.1,0.09-0.1,0.26,0,0.35
				c0.1,0.09,0.25,0.1,0.35,0c0.33-0.31,0.66-0.63,0.99-0.94c0.05-0.05,0.1-0.09,0.14-0.14c0.1-0.09,0.1-0.26,0-0.35
				C13.28,36.08,13.13,36.08,13.03,36.17L13.03,36.17z"/>
		</g>
	</g>
</g>
<circle class="st0" cx="27.21" cy="23.5" r="6.9"/>
<g>
	<polygon class="st16" points="28.22,23.06 28.22,28.08 29.62,26.79 30.63,28.6 31.37,28.25 30.39,26.51 32.28,26.51 	"/>
	<path class="st17" d="M32.4,23.99c0.01-0.07,0.02-0.13,0.03-0.2c0.02-0.15,0.03-0.3,0.03-0.46c0-0.15-0.01-0.3-0.02-0.44
		c-0.01-0.08-0.02-0.15-0.03-0.23c-0.01-0.05-0.01-0.11-0.02-0.16c0,0,0,0,0,0c-0.38-1.93-2.02-3.44-4.1-3.79c0,0,0,0,0,0
		c-0.07-0.01-0.13-0.02-0.2-0.03c-0.07-0.01-0.15-0.02-0.22-0.03c-0.16-0.01-0.32-0.02-0.48-0.02c-0.16,0-0.32,0.01-0.48,0.02
		c-0.07,0.01-0.15,0.02-0.22,0.03c-0.07,0.01-0.14,0.01-0.2,0.03c0,0,0,0,0,0c-2.08,0.35-3.72,1.86-4.1,3.79c0,0,0,0,0,0
		c-0.01,0.06-0.02,0.12-0.03,0.17c-0.01,0.07-0.02,0.14-0.03,0.22c-0.02,0.15-0.02,0.3-0.02,0.45c0,0.15,0.01,0.3,0.02,0.44
		c0.01,0.08,0.02,0.15,0.03,0.23c0.01,0.06,0.01,0.11,0.02,0.17c0,0,0,0,0,0c0.38,1.93,2.02,3.44,4.1,3.79c0,0,0,0,0,0
		c0.06,0.01,0.13,0.02,0.19,0.02c0.08,0.01,0.16,0.02,0.23,0.03c0.16,0.01,0.32,0.02,0.48,0.02c0,0,0.01,0,0.01,0V28v-1.05
		c0,0-0.01,0-0.01,0c-0.23,0-0.45-0.02-0.67-0.06c-0.17-0.47-0.32-1.09-0.42-1.86c0.35,0.02,0.71,0.03,1.08,0.03c0,0,0.01,0,0.01,0
		v-0.63c0,0-0.01,0-0.01,0c-0.41,0-0.79-0.01-1.15-0.04c-0.02-0.33-0.04-0.68-0.04-1.06c0-0.38,0.01-0.73,0.04-1.06
		c0.36-0.02,0.74-0.04,1.15-0.04c0.41,0,0.79,0.01,1.14,0.03c0,0.02,0,0.04,0,0.06c0.1,0.03,0.2,0.09,0.29,0.16l0.42,0.35
		c-0.01-0.17-0.02-0.34-0.03-0.51c0.83,0.09,1.51,0.23,2.02,0.39c0.04,0.2,0.06,0.41,0.06,0.62c0,0.21-0.02,0.41-0.06,0.61
		c-0.16,0.05-0.33,0.1-0.52,0.14l0.4,0.34l0,0l0.94,0.8c0.16-0.33,0.27-0.69,0.34-1.05c0,0,0,0,0,0
		C32.38,24.11,32.39,24.05,32.4,23.99z M25.92,19.98c-0.14,0.5-0.26,1.08-0.33,1.72c-0.68,0.07-1.31,0.17-1.86,0.3
		C24.13,21.08,24.92,20.35,25.92,19.98z M25.92,26.69c-1-0.37-1.79-1.1-2.19-2.02c0.54,0.13,1.17,0.24,1.86,0.3
		C25.66,25.6,25.77,26.18,25.92,26.69z M25.53,24.33c-0.83-0.09-1.5-0.23-2.02-0.38c-0.04-0.2-0.06-0.41-0.06-0.62
		c0-0.21,0.02-0.42,0.06-0.62c0.51-0.15,1.18-0.3,2.02-0.38c-0.02,0.32-0.03,0.66-0.03,1S25.51,24.01,25.53,24.33z M27.36,21.61
		c-0.37,0-0.73,0.01-1.08,0.03c0.1-0.77,0.25-1.39,0.42-1.86c0.22-0.03,0.44-0.06,0.67-0.06c0.23,0,0.45,0.02,0.67,0.06
		c0.17,0.47,0.32,1.1,0.42,1.86C28.09,21.62,27.73,21.61,27.36,21.61z M29.13,21.7c-0.07-0.63-0.18-1.21-0.33-1.72
		c1,0.37,1.79,1.1,2.19,2.02C30.44,21.87,29.81,21.76,29.13,21.7z"/>
</g>
<line class="st18" x1="15.62" y1="15.85" x2="21.38" y2="19.81"/>
<line class="st18" x1="22.18" y1="28.21" x2="17.15" y2="33.54"/>
<line class="st18" x1="32.34" y1="18.9" x2="35.91" y2="16.6"/>
<line class="st18" x1="32.64" y1="27.74" x2="37.69" y2="32.83"/>
</svg>
