<svg id="Capa_1" data-name="Capa 1" xmlns="http://www.w3.org/2000/svg" viewBox="0 0 36.85 36">
  <defs>
    <style>
      .cls-1 {
        fill: none;
        stroke: #339;
        stroke-miterlimit: 10;
        stroke-width: 4px;
      }

      .cls-2 {
        fill: #ee3661;
      }
    </style>
  </defs>
  <title>NoInternet</title>
  <g id="Icono">
    <circle class="cls-1" cx="18" cy="18" r="16"/>
    <path class="cls-1" d="M22,9a47.48,47.48,0,0,0-3,11.11A49.21,49.21,0,0,0,20,39" transform="translate(-7.5 -6.5)"/>
    <path class="cls-1" d="M32.22,39.1a47.48,47.48,0,0,0,1.72-11.38A49.21,49.21,0,0,0,30.81,9.07" transform="translate(-7.5 -6.5)"/>
    <path class="cls-1" d="M41.27,22.61a51.1,51.1,0,0,0-11.6-2.9A53.35,53.35,0,0,0,10,20.89" transform="translate(-7.5 -6.5)"/>
    <path class="cls-1" d="M10.24,26.4a49.61,49.61,0,0,0,11.41,2.89A51.65,51.65,0,0,0,41,28.11" transform="translate(-7.5 -6.5)"/>
    <g>
      <polygon class="cls-2" points="25.36 35.93 19.88 32.9 28.99 16.5 34.48 19.53 25.36 35.93"/>
      <polygon class="cls-2" points="17.5 24.09 20.72 18.72 36.85 28.35 33.63 33.71 17.5 24.09"/>
    </g>
  </g>
</svg>
