<svg id="Capa_1" data-name="Capa 1" xmlns="http://www.w3.org/2000/svg" viewBox="0 0 470.5 470.51">
  <defs>
    <style>
      .cls-1 {
        fill: #fff;
        stroke: #fff;
      }

      .cls-1, .cls-2 {
        stroke-miterlimit: 10;
      }

      .cls-2 {
        fill: #404552;
        stroke: #404552;
      }

      .cls-3 {
        fill: #1f1f1f;
      }

      .cls-4 {
        fill: #222;
      }

      .cls-5 {
        fill: #212121;
      }
    </style>
  </defs>
  <title>phone</title>
  <g>
    <path class="cls-1" d="M621.74,349.85c.14,129.33-104.94,234.6-234.48,234.9-129.39.3-235.12-105.37-235-234.86S257.59,115.27,387,115.25,621.6,220.4,621.74,349.85Z" transform="translate(-151.75 -114.75)"/>
    <path class="cls-2" d="M277.92,288a237.13,237.13,0,0,1,0-50c-.43-.64-.55-1.24.2-1.75,1.75-6.91,3.52-13.81,5.25-20.73a9.16,9.16,0,0,1,4-5.46c8.17-5.73,16.21-11.66,24.34-17.45,5.73-4.07,9.5-3.4,13.33,2.42q23.6,35.84,47.12,71.74c3.49,5.32,2.74,9.11-2.54,12.68-6.47,4.38-13.05,8.61-19.58,12.9-6.89,4.53-7.29,4.49-14.11,0-1.28-.85-2.44-3-4.17-1.92-1.51,1-.65,3.1-.5,4.66.39,4.11.29,8.3,1.62,12.29.83.46.66,1,.23,1.68,1.75,14.86,6.58,28.82,12.78,42.31,14,30.57,34.11,56.22,62,75.54,3.58,2.48,5.67,2.71,9-.57,7.53-7.31,16.15-13.37,24.68-19.48,4.9-3.51,8.9-2.67,12.26,2.42,13.29,20.15,26.48,40.36,39.8,60.49,2.57,3.89,3.46,8.21,4.24,12.64v.31c-1.1,10.54-7.49,16.63-16.49,21.43-9.24,4.93-18,6.21-28.34,3.39-30.61-8.34-57-24.06-80.14-45.15-49.18-44.77-80.83-99.64-93.29-165.24-.46-2.44-1-4.86-1.46-7.29C277.38,289.27,277.48,288.66,277.92,288Z" transform="translate(-151.75 -114.75)"/>
    <path class="cls-3" d="M497.82,482.65v-.31l.52-3.34.45,0c.07.92.19,1.84.19,2.76s-.11,2.1-.27,4.65Z" transform="translate(-151.75 -114.75)"/>
    <path class="cls-4" d="M278.11,236.23l-.2,1.75c-1.24-1.11-1-2.47-.49-4.69Z" transform="translate(-151.75 -114.75)"/>
    <path class="cls-5" d="M277.92,288l.18,1.78-.5,3.05C276.84,290.6,276.63,289.24,277.92,288Z" transform="translate(-151.75 -114.75)"/>
    <path class="cls-5" d="M333.07,309l-.23-1.68.56-3.09C334.09,306.42,334.44,307.77,333.07,309Z" transform="translate(-151.75 -114.75)"/>
  </g>
</svg>
