<svg id="Capa_1" data-name="Capa 1" xmlns="http://www.w3.org/2000/svg" viewBox="0 0 9 18"><defs><style>.cls-1{fill:#339;}.cls-2{fill:#fff;}.cls-3{fill:#2c4a9a;}</style></defs><title>Radio</title><g id="Radio"><path class="cls-1" d="M5.8,8.05V1.8a.3.3,0,0,1,.3-.3h.78a.33.33,0,0,1,.33.33V8.05Z" transform="translate(-5 -1)"/><path class="cls-1" d="M6.7,2V7.55H6.3V2h.4m.17-1H6.1a.8.8,0,0,0-.8.8V8.55H7.7V1.83A.83.83,0,0,0,6.87,1Z" transform="translate(-5 -1)"/><rect class="cls-2" x="0.8" y="5.82" width="7.7" height="11.68" rx="0.59" ry="0.59"/><path class="cls-1" d="M12.91,7.32a.09.09,0,0,1,.09.09V17.91a.09.09,0,0,1-.09.09H6.39a.09.09,0,0,1-.09-.09V7.41a.09.09,0,0,1,.09-.09h6.53m0-1H6.39A1.09,1.09,0,0,0,5.3,7.41V17.91A1.09,1.09,0,0,0,6.39,19h6.53A1.09,1.09,0,0,0,14,17.91V7.41a1.09,1.09,0,0,0-1.09-1.09Z" transform="translate(-5 -1)"/><rect class="cls-2" x="2" y="7.98" width="5.6" height="1.16"/><path class="cls-1" d="M12.1,9.48v.16H7.5V9.48h4.6m1-1H6.5v2.16h6.6V8.48Z" transform="translate(-5 -1)"/><rect class="cls-3" x="1.2" y="10.18" width="1.5" height="0.81"/><polygon class="cls-3" points="2.7 10.18 1.2 10.18 1.2 10.98 2.7 10.98 2.7 10.18 2.7 10.18"/><rect class="cls-3" x="3" y="10.18" width="1.5" height="0.81"/><polygon class="cls-3" points="4.5 10.18 3 10.18 3 10.98 4.5 10.98 4.5 10.18 4.5 10.18"/><rect class="cls-3" x="4.8" y="10.18" width="1.5" height="0.81"/><polygon class="cls-3" points="6.3 10.18 4.8 10.18 4.8 10.98 6.3 10.98 6.3 10.18 6.3 10.18"/><rect class="cls-3" x="6.6" y="10.18" width="1.5" height="0.81"/><polygon class="cls-3" points="8.1 10.18 6.6 10.18 6.6 10.98 8.1 10.98 8.1 10.18 8.1 10.18"/><path class="cls-2" d="M10.4,6.32H8.3V6.06a.55.55,0,0,1,.55-.55h1A.53.53,0,0,1,10.4,6Z" transform="translate(-5 -1)"/><path class="cls-1" d="M9.87,5.51h-1a.55.55,0,0,0-.55.55v.26h2.1V6a.53.53,0,0,0-.53-.53Z" transform="translate(-5 -1)"/><path class="cls-2" d="M12.8,6.32H10.7V6.16a.38.38,0,0,1,.38-.38h1.34a.38.38,0,0,1,.38.38Z" transform="translate(-5 -1)"/><path class="cls-1" d="M12.42,5.78H11.08a.38.38,0,0,0-.38.38v.16h2.1V6.16a.38.38,0,0,0-.38-.38Z" transform="translate(-5 -1)"/><rect class="cls-2" y="6.67" width="0.3" height="4.59"/><polygon class="cls-1" points="0.3 6.67 0 6.67 0 11.26 0.3 11.26 0.3 6.67 0.3 6.67"/></g></svg>