<svg xmlns="http://www.w3.org/2000/svg" viewBox="0 0 270.95 270">
  <defs>
    <style>
      .cls-1 {
        fill: #968d8a;
      }

      .cls-2, .cls-6, .cls-8 {
        fill: #ccc;
      }

      .cls-2 {
        opacity: 0.89;
      }

      .cls-3, .cls-5 {
        fill: #666;
      }

      .cls-4 {
        fill: #b7b3b2;
      }

      .cls-5 {
        opacity: 0.51;
      }

      .cls-7 {
        fill: #cecece;
      }

      .cls-8 {
        opacity: 0.96;
      }
    </style>
  </defs>
  <title>Recurso 3mundo</title>
  <g id="Capa_2" data-name="Capa 2">
    <g id="Capa_1-2" data-name="Capa 1">
      <g id="planeta_grande">
        <ellipse class="cls-1" cx="135.64" cy="135" rx="135.31" ry="135"/>
        <path class="cls-2" d="M12.07,154.53H20a12.83,12.83,0,0,1,12.83,12.83v5.58a9.8,9.8,0,0,1-9.8,9.8H7.83a9.8,9.8,0,0,1-9.8-9.8v-4.37a14,14,0,0,1,14-14Z" transform="translate(-140.67 234.28) rotate(-107.59)"/>
        <ellipse class="cls-3" cx="7.98" cy="171.01" rx="3.8" ry="11.6" transform="translate(-51.29 10.4) rotate(-17.59)"/>
        <path class="cls-2" d="M197.8,22.21h18.46a15,15,0,0,1,15,15v7a12,12,0,0,1-12,12H193.55a12,12,0,0,1-12-12V38.45A16.25,16.25,0,0,1,197.8,22.21Z" transform="translate(47.26 -97.96) rotate(30)"/>
        <ellipse class="cls-4" cx="137.83" cy="134.5" rx="127.5" ry="121.5"/>
        <ellipse class="cls-5" cx="154.08" cy="205.25" rx="24.75" ry="13.75"/>
        <path class="cls-6" d="M125.33,209c.34-.15,1.58,3.73,5,7,.71.67,3.39,3.12,10,5a47,47,0,0,0,21,1c4.52-.87,11.86-2.3,18-8,2.67-2.48,4.58-5.28,5-5s-1.35,4.59-4,8c-4.33,5.57-10,7.86-13,9-2.47,1-15.22,5.88-28,0a25,25,0,0,1-11-9C125.91,213.24,125,209.15,125.33,209Z"/>
        <ellipse class="cls-5" cx="234.33" cy="128.5" rx="21" ry="30.5"/>
        <path class="cls-7" d="M208.33,143c.35,0,.34,3.34,2,8a24,24,0,0,0,5,9c3.66,3.9,8,5.15,11,6a25.15,25.15,0,0,0,12,1c8.8-1.72,13.84-9.68,16-13,2.64-4.05,3.49-7.17,4-7,.73.24-.18,6.79-3,13-1.66,3.66-3.53,7.78-8,11a22.91,22.91,0,0,1-14,4,26,26,0,0,1-15-5,26.64,26.64,0,0,1-10-16C207.08,148.31,207.89,143,208.33,143Z"/>
        <ellipse class="cls-5" cx="127.34" cy="43.18" rx="27.7" ry="16.11" transform="translate(-5.75 62.38) rotate(-26.94)"/>
        <path class="cls-2" d="M96.33,53c.73-.17,1.37,3.75,4,7,3.4,4.2,8.49,5.27,12,6,11.87,2.48,22-2.49,25-4,8-4,12.56-9.44,13-9s-3.15,6.45-9,11a39.82,39.82,0,0,1-15,7c-6.1,1.64-11.13,3-17,1a21.71,21.71,0,0,1-9-6,16.39,16.39,0,0,1-4-7C95.62,56.24,95.69,53.15,96.33,53Z"/>
        <ellipse class="cls-5" cx="61.95" cy="88.19" rx="14.49" ry="8.9" transform="translate(-39.03 125.87) rotate(-75.37)"/>
        <path class="cls-8" d="M49.33,92c.17,0,0,.88,0,3,.05,2.58.09,4.32,1,6a8.43,8.43,0,0,0,3,3,9.69,9.69,0,0,0,6,2,8.7,8.7,0,0,0,7-4c.61-1.07.75-2,1-2,.42.06.9,2.78,0,5-1.41,3.46-5.85,4.91-9,5a10.29,10.29,0,0,1-11-10C46.93,95.62,49,91.92,49.33,92Z"/>
        <ellipse class="cls-3" cx="213" cy="30.45" rx="4.41" ry="18.55" transform="translate(80.13 199.69) rotate(-60)"/>
      </g>
    </g>
  </g>
</svg>
