<svg xmlns="http://www.w3.org/2000/svg" viewBox="0 0 62 62">
    <defs>
        <style>
            .cls-1 {
                fill: #86262f;
                stroke: #933;
                stroke-miterlimit: 10;
            }

            .cls-2 {
                fill: #fff;
            }
        </style>
    </defs>
    <g id="Capa_2" data-name="Capa 2">
        <g id="Capa_1-2" data-name="Capa 1">
            <rect id="Rectangulo_fuego" class="cls-1" x="0.5" y="0.5" width="61" height="61" rx="8.52" />
            <g id="Fuego">
                <path class="cls-2"
                    d="M41.62,49.18c-1.11,0-1.23-.67-1.26-.88a41.86,41.86,0,0,0-1-4.71c-.16-.52-.21-.65-.61-.9-.58-.36-.74-1.7-.84-2.51s-.17-1.44-.76-1.44a.65.65,0,0,0-.47.2,5.48,5.48,0,0,0-1.26,1.92c-.1.37-.2.8-.3,1.23s-.18.8-.28,1.18a6.76,6.76,0,0,1-.14-1.68,3.07,3.07,0,0,1,.43-1.34l.08-.16c.6-1.19.63-1.51.61-1.81s0-.67-.58-2.55c-.39-1.18-2-3.18-2.73-3.18h-.11c-.81.15-1.06,1.3-1.41,2.88A19.56,19.56,0,0,1,30.31,38a5.55,5.55,0,0,1-2,2.56,7.11,7.11,0,0,1-1.1-1.26c-.67-.89-1.26-1.67-1.92-1.67a.87.87,0,0,0-.39.1c-1.17.64-1.59,3-2,5.46a13.35,13.35,0,0,1-1,3.79,4.52,4.52,0,0,1-.77.92,2.28,2.28,0,0,1-1.54.64c-2.09,0-4.33-3-5.17-4.14l-.22-.29c-2.53-3.32.07-7.43,2-10.44.35-.54.66-1,.92-1.49a7.85,7.85,0,0,0,1.2-3,21.69,21.69,0,0,0,0-3.84c0-.31,0-.58,0-.78a.87.87,0,0,1,0-.18l.33.07.73,1a6.41,6.41,0,0,0,.91,1.14c1.84,1.83,2.63,4.87,3,6.33.22.84.28,1.07.61,1.17l.07,0h.31l.18-.19A10.1,10.1,0,0,0,25,28.44a26.62,26.62,0,0,0-1-3.84,10.78,10.78,0,0,1-.75-4c.69-4.16,5.52-10.59,7.41-10.59a.43.43,0,0,1,.28.09c.56.52.34,1.14-.35,2.54a6.09,6.09,0,0,0-.94,4c.6,3,2.79,8,4.1,9.34L35.2,27.4c1.13,1.15,1.76,1.7,2.26,1.7a.63.63,0,0,0,.59-.39c1-2.29,2-3.94,2.63-4.3a8.25,8.25,0,0,0,1.78-1.69,8.52,8.52,0,0,1,.6-.66,1.74,1.74,0,0,1,1-.53A5.24,5.24,0,0,1,44,23.05a7.59,7.59,0,0,0-.09.92c0,.61,0,1.17-.06,1.68a9.71,9.71,0,0,0,.07,2.4l.07.32a10.16,10.16,0,0,0,2.3,5c2.07,2.58,2.29,10.38-1.12,14.1A5.42,5.42,0,0,1,41.62,49.18Z" />
                <path class="cls-2"
                    d="M30.71,10.56c.24.25.14.64-.49,1.9a6.66,6.66,0,0,0-1,4.33c.62,3.11,2.88,8.22,4.24,9.59l.47.47.67.67.22.23c1.28,1.3,1.93,1.85,2.62,1.85a1.12,1.12,0,0,0,1-.69c1.06-2.45,2-3.83,2.42-4.07A8.7,8.7,0,0,0,42.84,23c.21-.24.4-.46.57-.63a1.19,1.19,0,0,1,.18-.15c0,.25-.06.53-.09.73a7.9,7.9,0,0,0-.09,1c0,.6,0,1.14-.06,1.66a10.3,10.3,0,0,0,.08,2.53l.07.32a10.7,10.7,0,0,0,2.39,5.2c1.93,2.4,2.11,10-1.09,13.46a4.87,4.87,0,0,1-3.18,1.54c-.69,0-.74-.28-.77-.47a41.19,41.19,0,0,0-1-4.76A1.66,1.66,0,0,0,39,42.26c-.37-.23-.54-1.62-.6-2.14-.1-.84-.23-1.88-1.26-1.88h0a1.14,1.14,0,0,0-.82.35l0,0a1.67,1.67,0,0,0,0-.31c.08-.44,0-.92-.61-2.72-.4-1.19-2.1-3.53-3.21-3.53h-.11l-.09,0c-1.14.21-1.42,1.49-1.8,3.27a22.31,22.31,0,0,1-.66,2.49,4.71,4.71,0,0,1-1.54,2.06c-.22-.25-.52-.64-.72-.9-.76-1-1.41-1.87-2.32-1.87h0a1.4,1.4,0,0,0-.63.16c-1.38.75-1.8,3.1-2.28,5.81a13.93,13.93,0,0,1-.91,3.6,4.53,4.53,0,0,1-.7.82,1.75,1.75,0,0,1-1.2.52c-1.84,0-4-3-4.77-3.94l-.22-.29c-2.32-3,.17-7,2-9.87.34-.54.66-1,.92-1.52a8.08,8.08,0,0,0,1.26-3.2,19.4,19.4,0,0,0,.06-3.62l.11.15a6.68,6.68,0,0,0,1,1.21c1.74,1.74,2.51,4.69,2.88,6.1.23.9.35,1.35.94,1.53l.15,0H24l.49,0,.3-.35c.54-.62,1.11-3.43.76-5.88a27.73,27.73,0,0,0-1-3.92,10.78,10.78,0,0,1-.74-3.72c.71-4.26,5.49-10.09,6.89-10.17m0-1c-2.27,0-7.21,6.82-7.9,11-.31,1.83,1.27,5,1.7,7.94A9.49,9.49,0,0,1,24,33.62h0c-.23-.07-.83-4.81-3.4-7.38A14.7,14.7,0,0,1,18.86,24h0a3.47,3.47,0,0,0-.69-.13c-.3,0-.43.17-.42.7a26.8,26.8,0,0,1,0,4.54,7.39,7.39,0,0,1-1.14,2.84c-1.68,3-6.06,8.26-2.83,12.49C14.5,45.38,17,49,19.54,49a2.77,2.77,0,0,0,1.87-.77,5.35,5.35,0,0,0,.86-1c1.14-1.7,1.17-8.17,2.84-9.08a.42.42,0,0,1,.15,0c.82,0,2.23,3,3.06,3a.28.28,0,0,0,.19-.07,6,6,0,0,0,2.27-2.84c.78-2.18.91-5,1.71-5.11h0a6.08,6.08,0,0,1,2.26,2.84c.56,1.7.61,2.06.56,2.27s.2.18-.56,1.7a3.94,3.94,0,0,0-.57,1.71c-.06,1.29.32,2.84.56,2.84h0c.5-.08.78-2.17,1.13-3.41A5.09,5.09,0,0,1,37,39.3a.15.15,0,0,1,.11-.06c.4,0,.09,3.1,1.33,3.87.26.16.26.16.4.62a41.41,41.41,0,0,1,1,4.65,1.57,1.57,0,0,0,1.76,1.3,5.91,5.91,0,0,0,3.92-1.87C49.06,44,49,35.89,46.68,33.05A10,10,0,0,1,44.41,28a24.67,24.67,0,0,1,0-4c0-.7.45-2.4,0-2.83a.49.49,0,0,0-.33-.11,2.28,2.28,0,0,0-1.38.67A14.33,14.33,0,0,1,40.43,24c-1.16.66-2.61,4-2.84,4.54a.13.13,0,0,1-.13.09c-.44,0-1.64-1.29-2.14-1.79l-1.13-1.13c-1.2-1.21-3.37-6.09-4-9.09-.57-2.83,2.84-5.25,1.13-6.81a.88.88,0,0,0-.61-.22Z" />
            </g>
        </g>
    </g>
</svg>