<svg xmlns="http://www.w3.org/2000/svg" viewBox="0 0 61 61">
    <defs>
        <style>
            .cls-1 {
                fill: #37a7e9;
                stroke: #7ac0e9;                
                stroke-miterlimit: 10;
            }

            .cls-2 {
                fill: #fff;
            }
        </style>
    </defs>
    <g id="Capa_2" data-name="Capa 2">
        <g id="Capa_1-2" data-name="Capa 1">
            <rect id="Rectangulo_torre" class="cls-1" width="61" height="61" rx="8.52" />
            <g id="Torre">
                <polygon class="cls-2" points="24 50 18 50 21 15 24 15 24 50" />
                <polygon class="cls-2" points="41.51 49.67 35.54 50.2 35.48 15.07 38.46 14.8 41.51 49.67" />
                <path class="cls-2"
                    d="M23.37,18.08l11,8c1.3,1,2.55-1.22,1.26-2.16l-11-8c-1.3-.95-2.55,1.22-1.26,2.16Z" />
                <path class="cls-2" d="M24.63,25.08l11-7c1.35-.86.1-3-1.26-2.16l-11,7c-1.35.86-.1,3,1.26,2.16Z" />
                <path class="cls-2" d="M23.37,27.08l11,8c1.3,1,2.55-1.22,1.26-2.16l-11-8c-1.3-1-2.55,1.22-1.26,2.16Z" />
                <path class="cls-2" d="M24.63,34.08l11-7c1.35-.86.1-3-1.26-2.16l-11,7c-1.35.86-.1,3,1.26,2.16Z" />
                <path class="cls-2" d="M23.37,38.08l11,8c1.3,1,2.55-1.22,1.26-2.16l-11-8c-1.3-1-2.55,1.22-1.26,2.16Z" />
                <path class="cls-2" d="M24.63,45.08l11-7c1.35-.86.1-3-1.26-2.16l-11,7c-1.35.86-.1,3,1.26,2.16Z" />
            </g>
        </g>
    </g>
</svg>