<svg xmlns="http://www.w3.org/2000/svg" viewBox="0 0 62 62">
    <defs>
        <style>
            .cls-1 {
                fill: #149b3a;
                stroke: #7cc791;
                stroke-miterlimit: 10;
            }

            .cls-2 {
                fill: #fff;
            }
        </style>
    </defs>
    <g id="Capa_2" data-name="Capa 2">
        <g id="Capa_1-2" data-name="Capa 1">
            <rect id="Rectangulo_huella" class="cls-1" x="0.5" y="0.5" width="61" height="61" rx="8.52" />
            <g id="Huella">
                <path class="cls-2"
                    d="M16,32.34a8.28,8.28,0,0,0,7.69-5.24c.61-1.48-1.8-2.13-2.42-.66A5.68,5.68,0,0,1,16,29.84a1.25,1.25,0,0,0,0,2.5Z" />
                <path class="cls-2"
                    d="M17.27,23.17c1.32-10.46,11-17.75,21.16-12.6,1.43.73,2.7-1.43,1.26-2.16-12-6.07-23.35,2.37-24.92,14.76-.2,1.59,2.3,1.58,2.5,0Z" />
                <path class="cls-2"
                    d="M47.47,31.42A22.36,22.36,0,0,0,42.1,10.05c-1.1-1.17-2.87.6-1.76,1.77a19.83,19.83,0,0,1,4.71,18.94,1.26,1.26,0,0,0,2.42.66Z" />
                <path class="cls-2"
                    d="M15,28c2.85.42,5.92,0,6.69-3.23.43-1.84,0-3.73.61-5.57a10.25,10.25,0,0,1,4.46-5c1.34-.88.09-3-1.26-2.16a13.25,13.25,0,0,0-5.32,5.75,11.64,11.64,0,0,0-.8,3.73c-.16,2.52-.48,4.55-3.72,4.08-1.57-.23-2.25,2.18-.66,2.41Z" />
                <path class="cls-2"
                    d="M29.7,12.9c7.93-1,12.82,5,12.42,12.49-.29,5.26-1.36,9.29,5.25,10.51,1.57.29,2.24-2.12.66-2.41-5.47-1-3.19-6.47-3.44-10.21A17.3,17.3,0,0,0,43.05,17c-2.47-5.2-7.82-7.31-13.35-6.63-1.58.2-1.6,2.7,0,2.5Z" />
                <path class="cls-2"
                    d="M24.47,23.89c.06-8.5,12.94-10.29,14.06-1.44.2,1.58,2.7,1.6,2.5,0-.64-5.05-4.86-9.08-10.12-8.55a10,10,0,0,0-8.94,10,1.25,1.25,0,0,0,2.5,0Z" />
                <path class="cls-2"
                    d="M16,35.94c3.24-.2,6.7-.73,8.9-3.37a10.5,10.5,0,0,0,2-5c.37-1.78.54-4.62,2.24-5.67s4.5-.63,5.6.9c2.82,3.94-3.11,10.72-5.84,13.09a25.16,25.16,0,0,1-13.21,5.52c-1.59.21-.91,2.62.66,2.41,9-1.23,24.35-9.86,21-21.21-1.1-3.66-4.34-6.37-8-4.1A10.47,10.47,0,0,0,25,24.43c-.65,2.15-.43,4.47-1.88,6.33-1.69,2.18-4.48,2.52-7.07,2.68-1.6.1-1.61,2.6,0,2.5Z" />
                <path class="cls-2"
                    d="M15,39.5a11.52,11.52,0,0,0,8.16-1.57c1.36-.86.1-3-1.26-2.16a8.85,8.85,0,0,1-6.24,1.32c-1.57-.27-2.25,2.14-.66,2.41Z" />
                <path class="cls-2"
                    d="M26,36.49a15.61,15.61,0,0,0,7.1-13.32,1.25,1.25,0,0,0-2.5,0,13,13,0,0,1-5.86,11.16c-1.34.89-.09,3.05,1.26,2.16Z" />
                <path class="cls-2"
                    d="M37.85,24.28a14.28,14.28,0,0,0,3.21,13.46c1.07,1.2,2.84-.58,1.76-1.77a11.71,11.71,0,0,1-2.55-11,1.26,1.26,0,0,0-2.42-.66Z" />
                <path class="cls-2"
                    d="M43.22,39.18a3.1,3.1,0,0,0,4.64,0C49,38,47.21,36.24,46.1,37.41a1.6,1.6,0,0,1-.24.22s-.3.17-.14.09c0,0-.35.07-.14.05s0,0,0,0a1,1,0,0,1-.56-.35c-1.08-1.19-2.85.58-1.76,1.77Z" />
                <path class="cls-2"
                    d="M34.25,35a14,14,0,0,0,12,8.84c1.6.13,1.6-2.37,0-2.5a11.35,11.35,0,0,1-9.59-7c-.6-1.47-3-.83-2.42.66Z" />
                <path class="cls-2"
                    d="M31.86,38.29C32.54,37,33,36.82,33.3,36.85s.49.55,1.44,1.44c.54.51.73.54.72.72,0,.7-2.88,1.66-3.6.72C31.77,39.62,31.52,39.22,31.86,38.29Z" />
                <path class="cls-2"
                    d="M16.74,45.49a2.76,2.76,0,0,0,1.44,1.44c1.22.48,2.8-.1,2.88-.72s.37-1.34-.72-1.44A10,10,0,0,0,16.74,45.49Z" />
                <path class="cls-2"
                    d="M23.85,46.57c4.76-2.21,9.1-4.71,14-1.78,2.63,1.55,4.43,2.78,7.65,2.67,1.6-.05,1.61-2.55,0-2.5-4.32.15-6.84-3.5-11-4.16s-8.45,2-12,3.61c-1.46.68-.19,2.84,1.26,2.16Z" />
                <path class="cls-2"
                    d="M20.67,51a15.07,15.07,0,0,0,6.61-2.42c1.13-.82,1.74-1.45,3.24-1.5a27.21,27.21,0,0,1,4.22.36c1.59.2,1.58-2.3,0-2.5-2.17-.27-4.87-.83-7,.11a32.59,32.59,0,0,0-2.85,2A14.11,14.11,0,0,1,20,48.61c-1.59.25-.91,2.66.66,2.41Z" />
                <path class="cls-2"
                    d="M35.82,47.56A6.83,6.83,0,0,0,43,50.3c1.58-.33.91-2.74-.66-2.41A4.21,4.21,0,0,1,38,46.3c-.92-1.3-3.09,0-2.16,1.26Z" />
                <path class="cls-2"
                    d="M25,53.9a17.66,17.66,0,0,0,3.07-1.13c1.06-.53,2-1.52,3.11-1.93,2.11-.8,4.88,1.18,6.54,2.21,1.37.86,2.62-1.31,1.26-2.16-2.14-1.34-4.84-3-7.51-2.67A4.78,4.78,0,0,0,29.4,49a19.63,19.63,0,0,1-5.07,2.5A1.25,1.25,0,0,0,25,53.9Z" />
                <path class="cls-2"
                    d="M30.42,53.41a2.27,2.27,0,0,0,.72,1.44,2.3,2.3,0,0,0,2.16,0c.45-.19,1.49-.78,1.44-1.44-.08-1.18-3.62-2.29-4.32-1.44C30.17,52.28,30.29,52.85,30.42,53.41Z" />
            </g>
        </g>
    </g>
</svg>